<svg width="250" height="139" viewBox="0 0 250 139" fill="none" xmlns="http://www.w3.org/2000/svg">
<g filter="url(#filter0_ddd_852_339)">
<rect x="5" y="4" width="240" height="128" rx="4" fill="#FAFAFA"/>
</g>
<path d="M101.415 96.3887C101.415 96.0013 101.278 95.7051 101.005 95.5C100.731 95.2904 100.239 95.0716 99.5283 94.8438C98.8174 94.6113 98.2546 94.3835 97.8398 94.1602C96.7096 93.5495 96.1445 92.7269 96.1445 91.6924C96.1445 91.1546 96.2949 90.6761 96.5957 90.2568C96.901 89.833 97.3363 89.5026 97.9014 89.2656C98.471 89.0286 99.109 88.9102 99.8154 88.9102C100.526 88.9102 101.16 89.04 101.716 89.2998C102.272 89.555 102.702 89.9173 103.008 90.3867C103.318 90.8561 103.473 91.3893 103.473 91.9863H101.422C101.422 91.5306 101.278 91.1774 100.991 90.9268C100.704 90.6715 100.301 90.5439 99.7812 90.5439C99.2799 90.5439 98.8903 90.651 98.6123 90.8652C98.3343 91.0749 98.1953 91.3529 98.1953 91.6992C98.1953 92.0228 98.3571 92.2939 98.6807 92.5127C99.0088 92.7314 99.4896 92.9365 100.123 93.1279C101.29 93.4788 102.14 93.9141 102.673 94.4336C103.206 94.9531 103.473 95.6003 103.473 96.375C103.473 97.2363 103.147 97.9131 102.495 98.4053C101.843 98.8929 100.966 99.1367 99.8633 99.1367C99.0977 99.1367 98.4004 98.9977 97.7715 98.7197C97.1426 98.4372 96.6618 98.0521 96.3291 97.5645C96.001 97.0768 95.8369 96.5117 95.8369 95.8691H97.8945C97.8945 96.9674 98.5508 97.5166 99.8633 97.5166C100.351 97.5166 100.731 97.4186 101.005 97.2227C101.278 97.0221 101.415 96.7441 101.415 96.3887ZM111.105 94.6865H107.168V97.3525H111.789V99H105.117V89.0469H111.775V90.708H107.168V93.0801H111.105V94.6865ZM119.729 94.8848C119.729 96.2611 119.445 97.3138 118.875 98.043C118.305 98.7721 117.471 99.1367 116.373 99.1367C115.288 99.1367 114.459 98.779 113.885 98.0635C113.311 97.348 113.017 96.3226 113.003 94.9873V93.1553C113.003 91.7653 113.29 90.7103 113.864 89.9902C114.443 89.2702 115.275 88.9102 116.359 88.9102C117.444 88.9102 118.273 89.2679 118.848 89.9834C119.422 90.6943 119.716 91.7174 119.729 93.0527V94.8848ZM117.754 92.875C117.754 92.0501 117.64 91.4508 117.412 91.0771C117.189 90.6989 116.838 90.5098 116.359 90.5098C115.895 90.5098 115.55 90.6898 115.327 91.0498C115.108 91.4053 114.992 91.9635 114.979 92.7246V95.1445C114.979 95.9557 115.088 96.5596 115.307 96.9561C115.53 97.348 115.885 97.5439 116.373 97.5439C116.856 97.5439 117.205 97.3548 117.419 96.9766C117.633 96.5983 117.745 96.0195 117.754 95.2402V92.875ZM126.118 99H124.143V91.3848L121.784 92.1162V90.5098L125.906 89.0332H126.118V99ZM135.809 94.6865H131.871V97.3525H136.492V99H129.82V89.0469H136.479V90.708H131.871V93.0801H135.809V94.6865ZM144.433 94.8848C144.433 96.2611 144.148 97.3138 143.578 98.043C143.008 98.7721 142.174 99.1367 141.076 99.1367C139.992 99.1367 139.162 98.779 138.588 98.0635C138.014 97.348 137.72 96.3226 137.706 94.9873V93.1553C137.706 91.7653 137.993 90.7103 138.567 89.9902C139.146 89.2702 139.978 88.9102 141.062 88.9102C142.147 88.9102 142.977 89.2679 143.551 89.9834C144.125 90.6943 144.419 91.7174 144.433 93.0527V94.8848ZM142.457 92.875C142.457 92.0501 142.343 91.4508 142.115 91.0771C141.892 90.6989 141.541 90.5098 141.062 90.5098C140.598 90.5098 140.254 90.6898 140.03 91.0498C139.812 91.4053 139.695 91.9635 139.682 92.7246V95.1445C139.682 95.9557 139.791 96.5596 140.01 96.9561C140.233 97.348 140.589 97.5439 141.076 97.5439C141.559 97.5439 141.908 97.3548 142.122 96.9766C142.336 96.5983 142.448 96.0195 142.457 95.2402V92.875ZM150.821 99H148.846V91.3848L146.487 92.1162V90.5098L150.609 89.0332H150.821V99Z" fill="black" fill-opacity="0.6"/>
<path d="M110.982 45.6973H107.281V43.7539H110.982C111.627 43.7539 112.148 43.6497 112.545 43.4414C112.942 43.2331 113.232 42.9466 113.414 42.582C113.603 42.2109 113.697 41.7878 113.697 41.3125C113.697 40.8633 113.603 40.4434 113.414 40.0527C113.232 39.6556 112.942 39.3366 112.545 39.0957C112.148 38.8548 111.627 38.7344 110.982 38.7344H108.033V51H105.582V36.7812H110.982C112.083 36.7812 113.017 36.9766 113.785 37.3672C114.56 37.7513 115.149 38.2852 115.553 38.9688C115.956 39.6458 116.158 40.4206 116.158 41.293C116.158 42.2109 115.956 42.9987 115.553 43.6562C115.149 44.3138 114.56 44.8184 113.785 45.1699C113.017 45.5215 112.083 45.6973 110.982 45.6973ZM120.791 40.4336V51H118.427V40.4336H120.791ZM118.271 37.6602C118.271 37.3021 118.388 37.0059 118.623 36.7715C118.864 36.5306 119.196 36.4102 119.619 36.4102C120.035 36.4102 120.364 36.5306 120.605 36.7715C120.846 37.0059 120.966 37.3021 120.966 37.6602C120.966 38.0117 120.846 38.3047 120.605 38.5391C120.364 38.7734 120.035 38.8906 119.619 38.8906C119.196 38.8906 118.864 38.7734 118.623 38.5391C118.388 38.3047 118.271 38.0117 118.271 37.6602ZM126.038 36V51H123.675V36H126.038ZM128.317 45.834V45.6094C128.317 44.8477 128.428 44.1413 128.649 43.4902C128.871 42.8327 129.19 42.263 129.606 41.7812C130.029 41.293 130.544 40.9154 131.149 40.6484C131.761 40.375 132.451 40.2383 133.22 40.2383C133.994 40.2383 134.684 40.375 135.29 40.6484C135.902 40.9154 136.419 41.293 136.843 41.7812C137.266 42.263 137.588 42.8327 137.809 43.4902C138.031 44.1413 138.141 44.8477 138.141 45.6094V45.834C138.141 46.5957 138.031 47.3021 137.809 47.9531C137.588 48.6042 137.266 49.1738 136.843 49.6621C136.419 50.1439 135.905 50.5215 135.3 50.7949C134.694 51.0618 134.007 51.1953 133.239 51.1953C132.464 51.1953 131.771 51.0618 131.159 50.7949C130.554 50.5215 130.039 50.1439 129.616 49.6621C129.193 49.1738 128.871 48.6042 128.649 47.9531C128.428 47.3021 128.317 46.5957 128.317 45.834ZM130.671 45.6094V45.834C130.671 46.3092 130.72 46.7585 130.817 47.1816C130.915 47.6048 131.068 47.9759 131.276 48.2949C131.485 48.6139 131.751 48.8646 132.077 49.0469C132.402 49.2292 132.79 49.3203 133.239 49.3203C133.675 49.3203 134.053 49.2292 134.372 49.0469C134.697 48.8646 134.964 48.6139 135.173 48.2949C135.381 47.9759 135.534 47.6048 135.632 47.1816C135.736 46.7585 135.788 46.3092 135.788 45.834V45.6094C135.788 45.1406 135.736 44.6979 135.632 44.2812C135.534 43.8581 135.378 43.4837 135.163 43.1582C134.955 42.8327 134.688 42.5788 134.362 42.3965C134.043 42.2077 133.662 42.1133 133.22 42.1133C132.777 42.1133 132.393 42.2077 132.067 42.3965C131.748 42.5788 131.485 42.8327 131.276 43.1582C131.068 43.4837 130.915 43.8581 130.817 44.2812C130.72 44.6979 130.671 45.1406 130.671 45.6094ZM145.108 40.4336V42.1523H139.151V40.4336H145.108ZM140.87 37.8457H143.223V48.0801C143.223 48.4056 143.269 48.6562 143.36 48.832C143.457 49.0013 143.591 49.1152 143.76 49.1738C143.929 49.2324 144.128 49.2617 144.356 49.2617C144.519 49.2617 144.675 49.252 144.825 49.2324C144.974 49.2129 145.095 49.1934 145.186 49.1738L145.196 50.9707C145 51.0293 144.773 51.0814 144.512 51.127C144.258 51.1725 143.965 51.1953 143.633 51.1953C143.093 51.1953 142.614 51.1009 142.198 50.9121C141.781 50.7168 141.455 50.401 141.221 49.9648C140.987 49.5286 140.87 48.9492 140.87 48.2266V37.8457Z" fill="black" fill-opacity="0.87"/>
<path d="M70.4727 73H68.3945L68.4082 71.9268H70.4727C71.1836 71.9268 71.776 71.7786 72.25 71.4824C72.724 71.1816 73.0794 70.7624 73.3164 70.2246C73.5579 69.6823 73.6787 69.0488 73.6787 68.3242V67.7158C73.6787 67.1462 73.6104 66.6403 73.4736 66.1982C73.3369 65.7516 73.1364 65.3757 72.8721 65.0703C72.6077 64.7604 72.2842 64.5257 71.9014 64.3662C71.5231 64.2067 71.0879 64.127 70.5957 64.127H68.3535V63.0469H70.5957C71.2474 63.0469 71.8421 63.1562 72.3799 63.375C72.9176 63.5892 73.3802 63.9014 73.7676 64.3115C74.1595 64.7171 74.4603 65.2093 74.6699 65.7881C74.8796 66.3623 74.9844 67.0094 74.9844 67.7295V68.3242C74.9844 69.0443 74.8796 69.6937 74.6699 70.2725C74.4603 70.8467 74.1572 71.3366 73.7607 71.7422C73.3688 72.1478 72.8949 72.46 72.3389 72.6787C71.7874 72.8929 71.1654 73 70.4727 73ZM69.0986 63.0469V73H67.7793V63.0469H69.0986ZM80.0947 73.1367C79.5798 73.1367 79.1126 73.0501 78.6934 72.877C78.2786 72.6992 77.9209 72.4508 77.6201 72.1318C77.3239 71.8128 77.096 71.4346 76.9365 70.9971C76.777 70.5596 76.6973 70.0811 76.6973 69.5615V69.2744C76.6973 68.6729 76.7861 68.1374 76.9639 67.668C77.1416 67.194 77.3831 66.793 77.6885 66.4648C77.9938 66.1367 78.3402 65.8883 78.7275 65.7197C79.1149 65.5511 79.516 65.4668 79.9307 65.4668C80.4593 65.4668 80.915 65.5579 81.2979 65.7402C81.6852 65.9225 82.002 66.1777 82.248 66.5059C82.4941 66.8294 82.6764 67.2122 82.7949 67.6543C82.9134 68.0918 82.9727 68.5703 82.9727 69.0898V69.6572H77.4492V68.625H81.708V68.5293C81.6898 68.2012 81.6214 67.8822 81.5029 67.5723C81.389 67.2624 81.2067 67.0072 80.9561 66.8066C80.7054 66.6061 80.3636 66.5059 79.9307 66.5059C79.6436 66.5059 79.3792 66.5674 79.1377 66.6904C78.8962 66.8089 78.6888 66.9867 78.5156 67.2236C78.3424 67.4606 78.208 67.75 78.1123 68.0918C78.0166 68.4336 77.9688 68.8278 77.9688 69.2744V69.5615C77.9688 69.9124 78.0166 70.2428 78.1123 70.5527C78.2126 70.8581 78.3561 71.127 78.543 71.3594C78.7344 71.5918 78.9645 71.7741 79.2334 71.9062C79.5068 72.0384 79.8167 72.1045 80.1631 72.1045C80.6097 72.1045 80.988 72.0133 81.2979 71.8311C81.6077 71.6488 81.8789 71.4049 82.1113 71.0996L82.877 71.708C82.7174 71.9495 82.5146 72.1797 82.2686 72.3984C82.0225 72.6172 81.7194 72.7949 81.3594 72.9316C81.0039 73.0684 80.5824 73.1367 80.0947 73.1367ZM87.6592 72.0977C87.96 72.0977 88.238 72.0361 88.4932 71.9131C88.7484 71.79 88.958 71.6214 89.1221 71.4072C89.2861 71.1885 89.3796 70.9401 89.4023 70.6621H90.6055C90.5827 71.0996 90.4346 71.5075 90.1611 71.8857C89.8923 72.2594 89.5391 72.5625 89.1016 72.7949C88.6641 73.0228 88.1833 73.1367 87.6592 73.1367C87.1032 73.1367 86.6178 73.0387 86.2031 72.8428C85.793 72.6468 85.4512 72.3779 85.1777 72.0361C84.9089 71.6943 84.7061 71.3024 84.5693 70.8604C84.4372 70.4137 84.3711 69.9421 84.3711 69.4453V69.1582C84.3711 68.6615 84.4372 68.1921 84.5693 67.75C84.7061 67.3034 84.9089 66.9092 85.1777 66.5674C85.4512 66.2256 85.793 65.9567 86.2031 65.7607C86.6178 65.5648 87.1032 65.4668 87.6592 65.4668C88.238 65.4668 88.7438 65.5853 89.1768 65.8223C89.6097 66.0547 89.9492 66.3737 90.1953 66.7793C90.446 67.1803 90.5827 67.6361 90.6055 68.1465H89.4023C89.3796 67.8411 89.293 67.5654 89.1426 67.3193C88.9967 67.0732 88.7962 66.8773 88.541 66.7314C88.2904 66.5811 87.9964 66.5059 87.6592 66.5059C87.2718 66.5059 86.946 66.5833 86.6816 66.7383C86.4219 66.8887 86.2145 67.0938 86.0596 67.3535C85.9092 67.6087 85.7998 67.8936 85.7314 68.208C85.6676 68.5179 85.6357 68.8346 85.6357 69.1582V69.4453C85.6357 69.7689 85.6676 70.0879 85.7314 70.4023C85.7952 70.7168 85.9023 71.0016 86.0527 71.2568C86.2077 71.512 86.415 71.7171 86.6748 71.8721C86.9391 72.0225 87.2673 72.0977 87.6592 72.0977ZM95.3467 73.1367C94.8317 73.1367 94.3646 73.0501 93.9453 72.877C93.5306 72.6992 93.1729 72.4508 92.8721 72.1318C92.5758 71.8128 92.348 71.4346 92.1885 70.9971C92.029 70.5596 91.9492 70.0811 91.9492 69.5615V69.2744C91.9492 68.6729 92.0381 68.1374 92.2158 67.668C92.3936 67.194 92.6351 66.793 92.9404 66.4648C93.2458 66.1367 93.5921 65.8883 93.9795 65.7197C94.3669 65.5511 94.7679 65.4668 95.1826 65.4668C95.7113 65.4668 96.167 65.5579 96.5498 65.7402C96.9372 65.9225 97.2539 66.1777 97.5 66.5059C97.7461 66.8294 97.9284 67.2122 98.0469 67.6543C98.1654 68.0918 98.2246 68.5703 98.2246 69.0898V69.6572H92.7012V68.625H96.96V68.5293C96.9417 68.2012 96.8734 67.8822 96.7549 67.5723C96.641 67.2624 96.4587 67.0072 96.208 66.8066C95.9574 66.6061 95.6156 66.5059 95.1826 66.5059C94.8955 66.5059 94.6312 66.5674 94.3896 66.6904C94.1481 66.8089 93.9408 66.9867 93.7676 67.2236C93.5944 67.4606 93.46 67.75 93.3643 68.0918C93.2686 68.4336 93.2207 68.8278 93.2207 69.2744V69.5615C93.2207 69.9124 93.2686 70.2428 93.3643 70.5527C93.4645 70.8581 93.6081 71.127 93.7949 71.3594C93.9863 71.5918 94.2165 71.7741 94.4854 71.9062C94.7588 72.0384 95.0687 72.1045 95.415 72.1045C95.8617 72.1045 96.2399 72.0133 96.5498 71.8311C96.8597 71.6488 97.1309 71.4049 97.3633 71.0996L98.1289 71.708C97.9694 71.9495 97.7666 72.1797 97.5205 72.3984C97.2744 72.6172 96.9714 72.7949 96.6113 72.9316C96.2559 73.0684 95.8343 73.1367 95.3467 73.1367ZM101.209 67.0732V73H99.9375V65.6035H101.141L101.209 67.0732ZM100.949 69.0215L100.361 69.001C100.366 68.4951 100.432 68.028 100.56 67.5996C100.687 67.1667 100.876 66.7907 101.127 66.4717C101.378 66.1527 101.69 65.9066 102.063 65.7334C102.437 65.5557 102.87 65.4668 103.362 65.4668C103.709 65.4668 104.028 65.5169 104.319 65.6172C104.611 65.7129 104.864 65.8656 105.078 66.0752C105.292 66.2848 105.459 66.5537 105.577 66.8818C105.696 67.21 105.755 67.6064 105.755 68.0713V73H104.49V68.1328C104.49 67.7454 104.424 67.4355 104.292 67.2031C104.164 66.9707 103.982 66.8021 103.745 66.6973C103.508 66.5879 103.23 66.5332 102.911 66.5332C102.537 66.5332 102.225 66.5993 101.975 66.7314C101.724 66.8636 101.523 67.0459 101.373 67.2783C101.223 67.5107 101.113 67.7773 101.045 68.0781C100.981 68.3743 100.949 68.6888 100.949 69.0215ZM105.741 68.3242L104.894 68.584C104.898 68.1784 104.964 67.7887 105.092 67.415C105.224 67.0413 105.413 66.7087 105.659 66.417C105.91 66.1253 106.217 65.8952 106.582 65.7266C106.947 65.5534 107.364 65.4668 107.833 65.4668C108.229 65.4668 108.58 65.5192 108.886 65.624C109.196 65.7288 109.455 65.8906 109.665 66.1094C109.879 66.3236 110.041 66.5993 110.15 66.9365C110.26 67.2738 110.314 67.6748 110.314 68.1396V73H109.043V68.126C109.043 67.7113 108.977 67.39 108.845 67.1621C108.717 66.9297 108.535 66.7679 108.298 66.6768C108.065 66.5811 107.787 66.5332 107.464 66.5332C107.186 66.5332 106.94 66.5811 106.726 66.6768C106.511 66.7725 106.331 66.9046 106.186 67.0732C106.04 67.2373 105.928 67.4264 105.851 67.6406C105.778 67.8548 105.741 68.0827 105.741 68.3242ZM112.472 62.5H113.743V71.5645L113.634 73H112.472V62.5ZM118.74 69.2402V69.3838C118.74 69.9215 118.676 70.4206 118.549 70.8809C118.421 71.3366 118.234 71.7331 117.988 72.0703C117.742 72.4076 117.441 72.6696 117.086 72.8564C116.73 73.0433 116.323 73.1367 115.862 73.1367C115.393 73.1367 114.98 73.057 114.625 72.8975C114.274 72.7334 113.978 72.4987 113.736 72.1934C113.495 71.888 113.301 71.5189 113.155 71.0859C113.014 70.653 112.916 70.1654 112.861 69.623V68.9941C112.916 68.4473 113.014 67.9574 113.155 67.5244C113.301 67.0915 113.495 66.7223 113.736 66.417C113.978 66.1071 114.274 65.8724 114.625 65.7129C114.976 65.5488 115.384 65.4668 115.849 65.4668C116.313 65.4668 116.726 65.5579 117.086 65.7402C117.446 65.918 117.747 66.1732 117.988 66.5059C118.234 66.8385 118.421 67.2373 118.549 67.7021C118.676 68.1624 118.74 68.6751 118.74 69.2402ZM117.469 69.3838V69.2402C117.469 68.8711 117.435 68.5247 117.366 68.2012C117.298 67.873 117.188 67.5859 117.038 67.3398C116.888 67.0892 116.689 66.8932 116.443 66.752C116.197 66.6061 115.894 66.5332 115.534 66.5332C115.215 66.5332 114.937 66.5879 114.7 66.6973C114.468 66.8066 114.27 66.9548 114.105 67.1416C113.941 67.3239 113.807 67.5335 113.702 67.7705C113.602 68.0029 113.527 68.2445 113.477 68.4951V70.1426C113.549 70.4616 113.668 70.7692 113.832 71.0654C114.001 71.3571 114.224 71.5964 114.502 71.7832C114.785 71.9701 115.133 72.0635 115.548 72.0635C115.89 72.0635 116.181 71.9951 116.423 71.8584C116.669 71.7171 116.867 71.5234 117.018 71.2773C117.173 71.0312 117.286 70.7464 117.359 70.4229C117.432 70.0993 117.469 69.7529 117.469 69.3838ZM123.659 73.1367C123.144 73.1367 122.677 73.0501 122.258 72.877C121.843 72.6992 121.485 72.4508 121.185 72.1318C120.888 71.8128 120.66 71.4346 120.501 70.9971C120.341 70.5596 120.262 70.0811 120.262 69.5615V69.2744C120.262 68.6729 120.351 68.1374 120.528 67.668C120.706 67.194 120.948 66.793 121.253 66.4648C121.558 66.1367 121.905 65.8883 122.292 65.7197C122.679 65.5511 123.08 65.4668 123.495 65.4668C124.024 65.4668 124.479 65.5579 124.862 65.7402C125.25 65.9225 125.566 66.1777 125.812 66.5059C126.059 66.8294 126.241 67.2122 126.359 67.6543C126.478 68.0918 126.537 68.5703 126.537 69.0898V69.6572H121.014V68.625H125.272V68.5293C125.254 68.2012 125.186 67.8822 125.067 67.5723C124.953 67.2624 124.771 67.0072 124.521 66.8066C124.27 66.6061 123.928 66.5059 123.495 66.5059C123.208 66.5059 122.944 66.5674 122.702 66.6904C122.461 66.8089 122.253 66.9867 122.08 67.2236C121.907 67.4606 121.772 67.75 121.677 68.0918C121.581 68.4336 121.533 68.8278 121.533 69.2744V69.5615C121.533 69.9124 121.581 70.2428 121.677 70.5527C121.777 70.8581 121.921 71.127 122.107 71.3594C122.299 71.5918 122.529 71.7741 122.798 71.9062C123.071 72.0384 123.381 72.1045 123.728 72.1045C124.174 72.1045 124.552 72.0133 124.862 71.8311C125.172 71.6488 125.443 71.4049 125.676 71.0996L126.441 71.708C126.282 71.9495 126.079 72.1797 125.833 72.3984C125.587 72.6172 125.284 72.7949 124.924 72.9316C124.568 73.0684 124.147 73.1367 123.659 73.1367ZM129.528 66.7656V73H128.264V65.6035H129.494L129.528 66.7656ZM131.839 65.5625L131.832 66.7383C131.727 66.7155 131.627 66.7018 131.531 66.6973C131.44 66.6882 131.335 66.6836 131.217 66.6836C130.925 66.6836 130.668 66.7292 130.444 66.8203C130.221 66.9115 130.032 67.0391 129.877 67.2031C129.722 67.3672 129.599 67.5632 129.508 67.791C129.421 68.0143 129.364 68.2604 129.337 68.5293L128.981 68.7344C128.981 68.2878 129.025 67.8685 129.111 67.4766C129.202 67.0846 129.341 66.7383 129.528 66.4375C129.715 66.1322 129.952 65.8952 130.239 65.7266C130.531 65.5534 130.877 65.4668 131.278 65.4668C131.369 65.4668 131.474 65.4782 131.593 65.501C131.711 65.5192 131.793 65.5397 131.839 65.5625ZM143.365 71.9609V73H136.851V72.0908L140.111 68.4609C140.512 68.0143 140.822 67.6361 141.041 67.3262C141.264 67.0117 141.419 66.7314 141.506 66.4854C141.597 66.2347 141.643 65.9795 141.643 65.7197C141.643 65.3916 141.574 65.0954 141.438 64.8311C141.305 64.5622 141.109 64.348 140.85 64.1885C140.59 64.029 140.275 63.9492 139.906 63.9492C139.464 63.9492 139.095 64.0358 138.799 64.209C138.507 64.3776 138.288 64.6146 138.143 64.9199C137.997 65.2253 137.924 65.5762 137.924 65.9727H136.659C136.659 65.4121 136.782 64.8994 137.028 64.4346C137.274 63.9697 137.639 63.6006 138.122 63.3271C138.605 63.0492 139.2 62.9102 139.906 62.9102C140.535 62.9102 141.073 63.0218 141.52 63.2451C141.966 63.4639 142.308 63.7738 142.545 64.1748C142.786 64.5713 142.907 65.0361 142.907 65.5693C142.907 65.861 142.857 66.1572 142.757 66.458C142.661 66.7542 142.527 67.0505 142.354 67.3467C142.185 67.6429 141.987 67.9346 141.759 68.2217C141.535 68.5088 141.296 68.7913 141.041 69.0693L138.375 71.9609H143.365ZM146.254 71.4961V72.5146C146.254 72.9294 146.149 73.3669 145.939 73.8271C145.73 74.292 145.436 74.6794 145.058 74.9893L144.34 74.4902C144.486 74.2897 144.609 74.0846 144.709 73.875C144.809 73.6699 144.884 73.4557 144.935 73.2324C144.989 73.0137 145.017 72.7812 145.017 72.5352V71.4961H146.254ZM158.225 71.9609V73H151.71V72.0908L154.971 68.4609C155.372 68.0143 155.682 67.6361 155.9 67.3262C156.124 67.0117 156.279 66.7314 156.365 66.4854C156.456 66.2347 156.502 65.9795 156.502 65.7197C156.502 65.3916 156.434 65.0954 156.297 64.8311C156.165 64.5622 155.969 64.348 155.709 64.1885C155.449 64.029 155.135 63.9492 154.766 63.9492C154.324 63.9492 153.954 64.0358 153.658 64.209C153.367 64.3776 153.148 64.6146 153.002 64.9199C152.856 65.2253 152.783 65.5762 152.783 65.9727H151.519C151.519 65.4121 151.642 64.8994 151.888 64.4346C152.134 63.9697 152.498 63.6006 152.981 63.3271C153.465 63.0492 154.059 62.9102 154.766 62.9102C155.395 62.9102 155.932 63.0218 156.379 63.2451C156.826 63.4639 157.167 63.7738 157.404 64.1748C157.646 64.5713 157.767 65.0361 157.767 65.5693C157.767 65.861 157.716 66.1572 157.616 66.458C157.521 66.7542 157.386 67.0505 157.213 67.3467C157.044 67.6429 156.846 67.9346 156.618 68.2217C156.395 68.5088 156.156 68.7913 155.9 69.0693L153.234 71.9609H158.225ZM166.076 67.2305V68.748C166.076 69.5638 166.003 70.252 165.857 70.8125C165.712 71.373 165.502 71.8242 165.229 72.166C164.955 72.5078 164.625 72.7562 164.237 72.9111C163.854 73.0615 163.422 73.1367 162.938 73.1367C162.556 73.1367 162.202 73.0889 161.879 72.9932C161.555 72.8975 161.264 72.7448 161.004 72.5352C160.749 72.321 160.53 72.043 160.348 71.7012C160.165 71.3594 160.026 70.9447 159.931 70.457C159.835 69.9694 159.787 69.3997 159.787 68.748V67.2305C159.787 66.4147 159.86 65.7311 160.006 65.1797C160.156 64.6283 160.368 64.1862 160.642 63.8535C160.915 63.5163 161.243 63.2747 161.626 63.1289C162.013 62.9831 162.446 62.9102 162.925 62.9102C163.312 62.9102 163.668 62.958 163.991 63.0537C164.319 63.1449 164.611 63.293 164.866 63.498C165.121 63.6986 165.338 63.9674 165.516 64.3047C165.698 64.6374 165.837 65.0452 165.933 65.5283C166.028 66.0114 166.076 66.5788 166.076 67.2305ZM164.805 68.9531V67.0186C164.805 66.5719 164.777 66.18 164.723 65.8428C164.673 65.501 164.597 65.2093 164.497 64.9678C164.397 64.7262 164.269 64.5303 164.114 64.3799C163.964 64.2295 163.788 64.1201 163.588 64.0518C163.392 63.9788 163.171 63.9424 162.925 63.9424C162.624 63.9424 162.357 63.9993 162.125 64.1133C161.893 64.2227 161.697 64.3981 161.537 64.6396C161.382 64.8812 161.264 65.1979 161.182 65.5898C161.1 65.9818 161.059 66.458 161.059 67.0186V68.9531C161.059 69.3997 161.084 69.7939 161.134 70.1357C161.188 70.4775 161.268 70.7738 161.373 71.0244C161.478 71.2705 161.605 71.4733 161.756 71.6328C161.906 71.7923 162.079 71.9108 162.275 71.9883C162.476 72.0612 162.697 72.0977 162.938 72.0977C163.248 72.0977 163.52 72.0384 163.752 71.9199C163.984 71.8014 164.178 71.6169 164.333 71.3662C164.493 71.111 164.611 70.7852 164.688 70.3887C164.766 69.9876 164.805 69.5091 164.805 68.9531ZM172.109 62.9922V73H170.845V64.5713L168.295 65.501V64.3594L171.911 62.9922H172.109ZM177.924 67.4014H178.826C179.268 67.4014 179.633 67.3285 179.92 67.1826C180.212 67.0322 180.428 66.8294 180.569 66.5742C180.715 66.3145 180.788 66.0228 180.788 65.6992C180.788 65.3164 180.724 64.9951 180.597 64.7354C180.469 64.4756 180.278 64.2796 180.022 64.1475C179.767 64.0153 179.444 63.9492 179.052 63.9492C178.696 63.9492 178.382 64.0199 178.108 64.1611C177.84 64.2979 177.628 64.4938 177.473 64.749C177.322 65.0042 177.247 65.305 177.247 65.6514H175.982C175.982 65.1455 176.11 64.6852 176.365 64.2705C176.62 63.8558 176.978 63.5254 177.438 63.2793C177.903 63.0332 178.441 62.9102 179.052 62.9102C179.653 62.9102 180.18 63.0173 180.631 63.2314C181.082 63.4411 181.433 63.7555 181.684 64.1748C181.934 64.5895 182.06 65.1068 182.06 65.7266C182.06 65.9772 182 66.2461 181.882 66.5332C181.768 66.8158 181.588 67.0801 181.342 67.3262C181.1 67.5723 180.786 67.7751 180.398 67.9346C180.011 68.0895 179.546 68.167 179.004 68.167H177.924V67.4014ZM177.924 68.4404V67.6816H179.004C179.637 67.6816 180.161 67.7568 180.576 67.9072C180.991 68.0576 181.317 68.2581 181.554 68.5088C181.795 68.7594 181.964 69.0352 182.06 69.3359C182.16 69.6322 182.21 69.9284 182.21 70.2246C182.21 70.6895 182.13 71.1019 181.971 71.4619C181.816 71.8219 181.595 72.1273 181.308 72.3779C181.025 72.6286 180.692 72.8177 180.31 72.9453C179.927 73.0729 179.51 73.1367 179.059 73.1367C178.626 73.1367 178.218 73.0752 177.835 72.9521C177.457 72.8291 177.122 72.6514 176.83 72.4189C176.538 72.182 176.311 71.8926 176.146 71.5508C175.982 71.2044 175.9 70.8102 175.9 70.3682H177.165C177.165 70.7145 177.24 71.0176 177.391 71.2773C177.546 71.5371 177.764 71.7399 178.047 71.8857C178.334 72.027 178.671 72.0977 179.059 72.0977C179.446 72.0977 179.779 72.0316 180.057 71.8994C180.339 71.7627 180.556 71.5576 180.706 71.2842C180.861 71.0107 180.938 70.6667 180.938 70.252C180.938 69.8372 180.852 69.4977 180.679 69.2334C180.506 68.9645 180.259 68.7663 179.94 68.6387C179.626 68.5065 179.255 68.4404 178.826 68.4404H177.924Z" fill="black" fill-opacity="0.6"/>
<defs>
<filter id="filter0_ddd_852_339" x="0" y="0" width="250" height="139" filterUnits="userSpaceOnUse" color-interpolation-filters="sRGB">
<feFlood flood-opacity="0" result="BackgroundImageFix"/>
<feColorMatrix in="SourceAlpha" type="matrix" values="0 0 0 0 0 0 0 0 0 0 0 0 0 0 0 0 0 0 127 0" result="hardAlpha"/>
<feOffset dy="2"/>
<feGaussianBlur stdDeviation="2"/>
<feColorMatrix type="matrix" values="0 0 0 0 0 0 0 0 0 0 0 0 0 0 0 0 0 0 0.14 0"/>
<feBlend mode="normal" in2="BackgroundImageFix" result="effect1_dropShadow_852_339"/>
<feColorMatrix in="SourceAlpha" type="matrix" values="0 0 0 0 0 0 0 0 0 0 0 0 0 0 0 0 0 0 127 0" result="hardAlpha"/>
<feOffset dy="3"/>
<feGaussianBlur stdDeviation="2"/>
<feColorMatrix type="matrix" values="0 0 0 0 0 0 0 0 0 0 0 0 0 0 0 0 0 0 0.12 0"/>
<feBlend mode="normal" in2="effect1_dropShadow_852_339" result="effect2_dropShadow_852_339"/>
<feColorMatrix in="SourceAlpha" type="matrix" values="0 0 0 0 0 0 0 0 0 0 0 0 0 0 0 0 0 0 127 0" result="hardAlpha"/>
<feOffset dy="1"/>
<feGaussianBlur stdDeviation="2.5"/>
<feColorMatrix type="matrix" values="0 0 0 0 0 0 0 0 0 0 0 0 0 0 0 0 0 0 0.2 0"/>
<feBlend mode="normal" in2="effect2_dropShadow_852_339" result="effect3_dropShadow_852_339"/>
<feBlend mode="normal" in="SourceGraphic" in2="effect3_dropShadow_852_339" result="shape"/>
</filter>
</defs>
</svg>
